<svg xmlns="http://www.w3.org/2000/svg" width="32" height="32.002" viewBox="0 0 32 32.002">
  <g id="ico_44_star" transform="translate(7960 1.001)" fill="#1c1c1b" stroke-miterlimit="10">
    <path d="M -7943.72119140625 27.53802680969238 C -7944.9248046875 21.48417472839355 -7948.67822265625 18.31177520751953 -7951.87158203125 16.67556953430176 C -7953.513671875 15.83399963378906 -7955.13623046875 15.31791591644287 -7956.49462890625 15.00156879425049 C -7955.13623046875 14.68517589569092 -7953.513671875 14.16901016235352 -7951.87158203125 13.32730960845947 C -7948.67822265625 11.69086647033691 -7944.9248046875 8.518003463745117 -7943.72119140625 2.463240623474121 C -7943.3564453125 3.859530448913574 -7942.78271484375 5.541534423828125 -7941.88623046875 7.234360218048096 C -7940.28955078125 10.24965667724609 -7937.39306640625 13.72799587249756 -7932.27978515625 15.00156307220459 C -7937.39306640625 16.27493858337402 -7940.28955078125 19.75274848937988 -7941.88623046875 22.7675895690918 C -7942.78271484375 24.46016502380371 -7943.3564453125 26.14194488525391 -7943.72119140625 27.53802680969238 Z" stroke="none"/>
    <path d="M -7943.67529296875 25.65976715087891 C -7943.33349609375 24.66546058654785 -7942.8935546875 23.60112190246582 -7942.328125 22.5335807800293 C -7940.8525390625 19.74719047546387 -7938.30126953125 16.57760810852051 -7933.99658203125 15.0015287399292 C -7938.30126953125 13.42521190643311 -7940.8525390625 10.2551441192627 -7942.328125 7.468339920043945 C -7942.8935546875 6.400642871856689 -7943.33349609375 5.336191177368164 -7943.67529296875 4.341742038726807 C -7945.23486328125 9.443519592285156 -7948.673828125 12.25042629241943 -7951.6435546875 13.77227973937988 C -7952.6630859375 14.29483509063721 -7953.67626953125 14.69511604309082 -7954.62646484375 15.0015344619751 C -7953.67626953125 15.3079080581665 -7952.6630859375 15.70811557769775 -7951.6435546875 16.2305908203125 C -7948.673828125 17.75222206115723 -7945.23486328125 20.55872917175293 -7943.67529296875 25.65976715087891 M -7943.83984375 31.00159072875977 C -7944.31787109375 15.31879997253418 -7960.00048828125 15.00160026550293 -7960.00048828125 15.00160026550293 C -7960.00048828125 15.00160026550293 -7944.31787109375 14.68439960479736 -7943.83984375 -1.000849962234497 C -7943.83984375 -1.000849962234497 -7942.73193359375 15.00160026550293 -7928.00048828125 15.00160026550293 C -7942.73193359375 15.00160026550293 -7943.83984375 31.00159072875977 -7943.83984375 31.00159072875977 Z" stroke="none" fill="#1c1c1b"/>
  </g>
</svg>
