<svg xmlns="http://www.w3.org/2000/svg" width="18" height="18.001" viewBox="0 0 18 18.001">
  <g id="icon_18_star" transform="translate(7960 1.001)" fill="#1c1c1b">
    <path d="M -7950.822265625 14.20431995391846 C -7951.6650390625 11.23416805267334 -7953.6337890625 9.615971565246582 -7955.328125 8.747468948364258 C -7955.966796875 8.420132637023926 -7956.60107421875 8.178615570068359 -7957.18603515625 8.000495910644531 C -7956.60107421875 7.822350025177002 -7955.966796875 7.580788135528564 -7955.328125 7.25339937210083 C -7953.6337890625 6.384779453277588 -7951.6650390625 4.76635217666626 -7950.822265625 1.795770287513733 C -7950.623046875 2.405134677886963 -7950.357421875 3.068242073059082 -7950.0048828125 3.733869314193726 C -7949.16162109375 5.326011657714844 -7947.6904296875 7.141959667205811 -7945.1845703125 8.000494003295898 C -7947.6904296875 8.858899116516113 -7949.16162109375 10.67457103729248 -7950.0048828125 12.2664794921875 C -7950.357421875 12.93200874328613 -7950.623046875 13.59504222869873 -7950.822265625 14.20431995391846 Z" stroke="none"/>
    <path d="M -7950.80517578125 12.7691068649292 C -7950.69677734375 12.52533054351807 -7950.57763671875 12.27906513214111 -7950.44677734375 12.03241920471191 C -7949.68994140625 10.60388374328613 -7948.45458984375 9.004727363586426 -7946.4775390625 8.000463485717773 C -7948.45458984375 6.996051788330078 -7949.6904296875 5.396642208099365 -7950.44677734375 3.967889308929443 C -7950.57763671875 3.721211433410645 -7950.69677734375 3.474964141845703 -7950.80517578125 3.231156826019287 C -7951.833984375 5.556915283203125 -7953.572265625 6.91532039642334 -7955.10009765625 7.698359489440918 C -7955.31396484375 7.808039665222168 -7955.52783203125 7.90847110748291 -7955.7392578125 8.000465393066406 C -7955.52783203125 8.092445373535156 -7955.31396484375 8.192836761474609 -7955.10009765625 8.302499771118164 C -7953.57275390625 9.085431098937988 -7951.833984375 10.4436674118042 -7950.80517578125 12.7691068649292 M -7950.9111328125 17.00053024291992 C -7951.1796875 8.178949356079102 -7960 8.000529289245605 -7960 8.000529289245605 C -7960 8.000529289245605 -7951.1796875 7.822109222412109 -7950.9111328125 -1.000850677490234 C -7950.9111328125 -1.000850677490234 -7950.287109375 8.000529289245605 -7942 8.000529289245605 C -7950.287109375 8.000529289245605 -7950.9111328125 17.00053024291992 -7950.9111328125 17.00053024291992 Z" stroke="none" fill="#1c1c1b"/>
  </g>
</svg>
