<svg xmlns="http://www.w3.org/2000/svg" width="16" height="16.001" viewBox="0 0 16 16.001">
  <g id="icon_16_star_outline" transform="translate(7960 1.001)" fill="#1c1c1b">
    <path d="M -7951.83837890625 12.32945823669434 C -7952.61767578125 9.778925895690918 -7954.33740234375 8.375696182250977 -7955.82177734375 7.614872455596924 C -7956.33154296875 7.353632926940918 -7956.83837890625 7.153526306152344 -7957.3134765625 7.000339508056641 C -7956.837890625 6.847114086151123 -7956.33154296875 6.647048473358154 -7955.82177734375 6.385702610015869 C -7954.3369140625 5.624771595001221 -7952.61767578125 4.221347332000732 -7951.83837890625 1.670445799827576 C -7951.66748046875 2.167669057846069 -7951.447265625 2.69993782043457 -7951.16455078125 3.233782529830933 C -7950.4267578125 4.627173900604248 -7949.15087890625 6.212185382843018 -7946.99853515625 7.000336170196533 C -7949.15087890625 7.788367748260498 -7950.4267578125 9.373138427734375 -7951.16455078125 10.76632213592529 C -7951.447265625 11.30021858215332 -7951.66748046875 11.83220386505127 -7951.83837890625 12.32945823669434 Z" stroke="none"/>
    <path d="M -7951.826171875 10.97181606292725 C -7951.75732421875 10.82583236694336 -7951.68408203125 10.67904472351074 -7951.6064453125 10.53227233886719 C -7950.94921875 9.291865348815918 -7949.8916015625 7.908550262451172 -7948.22119140625 7.000308036804199 C -7949.8916015625 6.091933250427246 -7950.94921875 4.708400249481201 -7951.6064453125 3.467812538146973 C -7951.68408203125 3.321020364761353 -7951.75732421875 3.174265384674072 -7951.826171875 3.028262138366699 C -7952.7626953125 4.988396644592285 -7954.2666015625 6.150369167327881 -7955.59375 6.830662727355957 C -7955.7099609375 6.890206813812256 -7955.82568359375 6.946666240692139 -7955.94140625 7.000307083129883 C -7955.82568359375 7.053938865661621 -7955.7099609375 7.110367774963379 -7955.59375 7.169902324676514 C -7954.2666015625 7.850105285644531 -7952.7626953125 9.011942863464355 -7951.826171875 10.97181606292725 M -7951.9208984375 15.00037288665771 C -7952.1591796875 7.15897274017334 -7960 7.000372409820557 -7960 7.000372409820557 C -7960 7.000372409820557 -7952.1591796875 6.841782569885254 -7951.9208984375 -1.000847458839417 C -7951.9208984375 -1.000847458839417 -7951.3662109375 7.000372409820557 -7944 7.000372409820557 C -7951.3662109375 7.000372409820557 -7951.9208984375 15.00037288665771 -7951.9208984375 15.00037288665771 Z" stroke="none" fill="#1c1c1b"/>
  </g>
</svg>
