<svg xmlns="http://www.w3.org/2000/svg" width="18" height="18.001" viewBox="0 0 18 18.001">
  <g id="icon_18_star" transform="translate(7960 1.001)" fill="none">
    <path d="M-7960,8s8.82-.178,9.089-9c0,0,.624,9,8.911,9-8.287,0-8.911,9-8.911,9C-7951.18,8.179-7960,8-7960,8Z" stroke="none"/>
    <path d="M -7950.80517578125 12.7691068649292 C -7950.69677734375 12.52533054351807 -7950.57763671875 12.27906513214111 -7950.44677734375 12.03241920471191 C -7949.68994140625 10.60388374328613 -7948.45458984375 9.004727363586426 -7946.4775390625 8.000463485717773 C -7948.45458984375 6.996051788330078 -7949.6904296875 5.396642208099365 -7950.44677734375 3.967889308929443 C -7950.57763671875 3.721211433410645 -7950.69677734375 3.474964141845703 -7950.80517578125 3.231156826019287 C -7951.833984375 5.556915283203125 -7953.572265625 6.91532039642334 -7955.10009765625 7.698359489440918 C -7955.31396484375 7.808039665222168 -7955.52783203125 7.90847110748291 -7955.7392578125 8.000465393066406 C -7955.52783203125 8.092445373535156 -7955.31396484375 8.192836761474609 -7955.10009765625 8.302499771118164 C -7953.57275390625 9.085431098937988 -7951.833984375 10.4436674118042 -7950.80517578125 12.7691068649292 M -7950.9111328125 17.00053024291992 C -7951.1796875 8.178949356079102 -7960 8.000529289245605 -7960 8.000529289245605 C -7960 8.000529289245605 -7951.1796875 7.822109222412109 -7950.9111328125 -1.000850677490234 C -7950.9111328125 -1.000850677490234 -7950.287109375 8.000529289245605 -7942 8.000529289245605 C -7950.287109375 8.000529289245605 -7950.9111328125 17.00053024291992 -7950.9111328125 17.00053024291992 Z" stroke="none" fill="#1c1c1b"/>
  </g>
</svg>
